<svg width="20" height="20" viewBox="0 0 20 20" version="1.1" xmlns="http://www.w3.org/2000/svg" xmlns:xlink="http://www.w3.org/1999/xlink">
<g id="Canvas" fill="none">
<g id="Frame" clip-path="url(#clip0)">
<path id="Vector" d="M 1.16522 6.14513C 0.518448 6.14513 -3.13302e-07 6.67109 -3.13302e-07 7.31563L -3.13302e-07 12.2245C -3.13302e-07 12.8742 0.523581 13.395 1.16522 13.395C 1.812 13.395 2.33045 12.8691 2.33045 12.2245L 2.33045 7.31563C 2.33045 6.67109 1.80687 6.14513 1.16522 6.14513ZM 10.5743 1.73643L 11.3904 0.241075C 11.4315 0.163729 11.4058 0.0657579 11.3288 0.0193505C 11.2518 -0.0219006 11.1492 0.0038815 11.1081 0.0863836L 10.2868 1.5972C 9.59384 1.28782 8.81874 1.1125 7.99743 1.1125C 7.18126 1.1125 6.40616 1.28266 5.71832 1.59205L 4.89702 0.0863836C 4.85595 0.00903789 4.75329 -0.0219006 4.67629 0.0193505C 4.59929 0.0606016 4.5685 0.163729 4.60956 0.241075L 5.42573 1.73643C 3.82419 2.5666 2.7411 4.14446 2.7411 5.95951L 13.2538 5.95951C 13.2538 4.14446 12.1758 2.5666 10.5743 1.73643ZM 5.60539 4.04649C 5.36413 4.04649 5.16394 3.85054 5.16394 3.60304C 5.16394 3.36069 5.359 3.15959 5.60539 3.15959C 5.84665 3.15959 6.04684 3.36069 6.04684 3.60304C 6.04684 3.85054 5.85178 4.04649 5.60539 4.04649ZM 10.3946 4.04649C 10.1534 4.04649 9.95316 3.85054 9.95316 3.60304C 9.95316 3.36069 10.1482 3.15959 10.3946 3.15959C 10.6359 3.15959 10.8361 3.36069 10.8361 3.60304C 10.8309 3.84539 10.6359 4.04649 10.3946 4.04649ZM 2.78216 6.36686L 2.78216 13.9777C 2.78216 14.6686 3.33654 15.2307 4.02952 15.2307L 4.87648 15.2307L 4.87648 17.8295C 4.87648 18.474 5.40006 19 6.04171 19C 6.68848 19 7.20693 18.474 7.20693 17.8243L 7.20693 15.2255L 8.7828 15.2255L 8.7828 17.8243C 8.7828 18.4689 9.30638 18.9948 9.94803 18.9948C 10.5948 18.9948 11.1132 18.4689 11.1132 17.8243L 11.1132 15.2255L 11.9654 15.2255C 12.6532 15.2255 13.2127 14.6686 13.2127 13.9725L 13.2127 6.3617L 2.78216 6.36686ZM 16 7.31563C 16 6.66593 15.4764 6.14513 14.8348 6.14513C 14.188 6.14513 13.6696 6.67109 13.6696 7.31563L 13.6696 12.2245C 13.6696 12.8742 14.1931 13.395 14.8348 13.395C 15.4816 13.395 16 12.8691 16 12.2245L 16 7.31563Z" transform="translate(18 0) scale(-1 1)" fill="white" fill-opacity="0.7"/>
</g>
</g>
<defs>
<clipPath id="clip0">
<rect width="20" height="20" fill="white"/>
</clipPath>
</defs>
</svg>
