<svg width="77" height="30" viewBox="0 0 77 30" version="1.1" xmlns="http://www.w3.org/2000/svg" xmlns:xlink="http://www.w3.org/1999/xlink">
<g id="Canvas" fill="none">
<g id="Frame 2" clip-path="url(#clip0)">
<path id="Brick" d="M 1.14258 17L 1.14258 4.20312L 5.625 4.20312C 7.17773 4.20312 8.35547 4.50195 9.1582 5.09961C 9.96094 5.69141 10.3623 6.56152 10.3623 7.70996C 10.3623 8.33691 10.2012 8.89062 9.87891 9.37109C 9.55664 9.8457 9.1084 10.1943 8.53418 10.417C 9.19043 10.5811 9.70605 10.9121 10.0811 11.4102C 10.4619 11.9082 10.6523 12.5176 10.6523 13.2383C 10.6523 14.4688 10.2598 15.4004 9.47461 16.0332C 8.68945 16.666 7.57031 16.9883 6.11719 17L 1.14258 17ZM 3.7793 11.4277L 3.7793 14.8818L 6.03809 14.8818C 6.65918 14.8818 7.14258 14.7354 7.48828 14.4424C 7.83984 14.1436 8.01562 13.7334 8.01562 13.2119C 8.01562 12.04 7.40918 11.4453 6.19629 11.4277L 3.7793 11.4277ZM 3.7793 9.56445L 5.73047 9.56445C 7.06055 9.54102 7.72559 9.01074 7.72559 7.97363C 7.72559 7.39355 7.55566 6.97754 7.21582 6.72559C 6.88184 6.46777 6.35156 6.33887 5.625 6.33887L 3.7793 6.33887L 3.7793 9.56445ZM 17.8154 9.87207C 17.4697 9.8252 17.165 9.80176 16.9014 9.80176C 15.9404 9.80176 15.3105 10.127 15.0117 10.7773L 15.0117 17L 12.4717 17L 12.4717 7.49023L 14.8711 7.49023L 14.9414 8.62402C 15.4512 7.75098 16.1572 7.31445 17.0596 7.31445C 17.3408 7.31445 17.6045 7.35254 17.8506 7.42871L 17.8154 9.87207ZM 21.7266 17L 19.1777 17L 19.1777 7.49023L 21.7266 7.49023L 21.7266 17ZM 19.0283 5.0293C 19.0283 4.64844 19.1543 4.33496 19.4062 4.08887C 19.6641 3.84277 20.0127 3.71973 20.4521 3.71973C 20.8857 3.71973 21.2314 3.84277 21.4893 4.08887C 21.7471 4.33496 21.876 4.64844 21.876 5.0293C 21.876 5.41602 21.7441 5.73242 21.4805 5.97852C 21.2227 6.22461 20.8799 6.34766 20.4521 6.34766C 20.0244 6.34766 19.6787 6.22461 19.415 5.97852C 19.1572 5.73242 19.0283 5.41602 19.0283 5.0293ZM 27.7822 15.1279C 28.251 15.1279 28.6318 14.999 28.9248 14.7412C 29.2178 14.4834 29.3701 14.1406 29.3818 13.7129L 31.7637 13.7129C 31.7578 14.3574 31.582 14.9492 31.2363 15.4883C 30.8906 16.0215 30.416 16.4375 29.8125 16.7363C 29.2148 17.0293 28.5527 17.1758 27.8262 17.1758C 26.4668 17.1758 25.3945 16.7451 24.6094 15.8838C 23.8242 15.0166 23.4316 13.8213 23.4316 12.2979L 23.4316 12.1309C 23.4316 10.666 23.8213 9.49707 24.6006 8.62402C 25.3799 7.75098 26.4492 7.31445 27.8086 7.31445C 28.998 7.31445 29.9502 7.6543 30.665 8.33398C 31.3857 9.00781 31.752 9.90723 31.7637 11.0322L 29.3818 11.0322C 29.3701 10.54 29.2178 10.1416 28.9248 9.83691C 28.6318 9.52637 28.2451 9.37109 27.7646 9.37109C 27.1729 9.37109 26.7246 9.58789 26.4199 10.0215C 26.1211 10.4492 25.9717 11.1465 25.9717 12.1133L 25.9717 12.377C 25.9717 13.3555 26.1211 14.0586 26.4199 14.4863C 26.7188 14.9141 27.1729 15.1279 27.7822 15.1279ZM 36.668 13.1855L 35.7539 14.0996L 35.7539 17L 33.2139 17L 33.2139 3.5L 35.7539 3.5L 35.7539 10.9795L 36.2461 10.3467L 38.6807 7.49023L 41.7305 7.49023L 38.2939 11.4541L 42.0293 17L 39.1113 17L 36.668 13.1855Z" transform="translate(32 5)" fill="white"/>
<rect id="Rectangle 4.13" opacity="0.5" width="4.2394" height="4.59184" transform="translate(8.38013 16.9388)" fill="white"/>
<rect id="Rectangle 4" width="6.3098" height="13.0612" rx="0.401204" transform="translate(0 16.9388)" fill="white"/>
<path id="Rectangle 4.2" d="M 0 0.401204C 0 0.179625 0.179625 0 0.401204 0L 5.9086 0C 6.13018 0 6.3098 0.179625 6.3098 0.401204L 6.3098 12.66C 6.3098 12.8816 6.13018 13.0612 5.9086 13.0612L 0.401203 13.0612C 0.179625 13.0612 0 12.8816 0 12.66L 0 0.401204Z" transform="translate(14.6899 8.46939)" fill="white"/>
<rect id="Rectangle 4.1" width="6.53061" height="12.6196" rx="0.401204" transform="matrix(0 -1 1 0 0 15)" fill="white"/>
<path id="Rectangle 4.11" d="M 0 0.401203C 0 0.179625 0.179625 0 0.401204 0L 6.12941 0C 6.35099 0 6.53061 0.179625 6.53061 0.401204L 6.53061 5.9086C 6.53061 6.13018 6.35099 6.3098 6.12941 6.3098L 0.401204 6.3098C 0.179625 6.3098 0 6.13018 0 5.9086L 0 0.401203Z" transform="matrix(0 -1 1 0 0 6.53061)" fill="white"/>
<path id="Rectangle 4.12" opacity="0.5" d="M 0 0.401204C 0 0.179625 0.179625 0 0.401204 0L 6.12941 0C 6.35099 0 6.53061 0.179625 6.53061 0.401204L 6.53061 12.2184C 6.53061 12.44 6.35099 12.6196 6.12941 12.6196L 0.401204 12.6196C 0.179625 12.6196 0 12.44 0 12.2184L 0 0.401204Z" transform="matrix(0 -1 1 0 8.38013 6.53061)" fill="white"/>
<path id="Rectangle 4.15" d="M 0 0.401204C 0 0.179625 0.179625 0 0.401204 0L 6.12941 0C 6.35099 0 6.53061 0.179625 6.53061 0.401204L 6.53061 12.2184C 6.53061 12.44 6.35099 12.6196 6.12941 12.6196L 3.00903 12.6196C 1.34719 12.6196 0 11.2724 0 9.61058L 0 0.401204Z" transform="matrix(0 -1 1 0 8.38037 30)" fill="white"/>
</g>
</g>
<defs>
<clipPath id="clip0">
<rect width="77" height="30" fill="white"/>
</clipPath>
</defs>
</svg>
