<svg width="252" height="490" viewBox="0 0 252 490" version="1.1" xmlns="http://www.w3.org/2000/svg" xmlns:xlink="http://www.w3.org/1999/xlink">
<g id="Canvas" fill="none">
<g id="Pixel_White" filter="url(#filter0_d)">
<g id="hardware">
<path id="Volume + Power" fill-rule="evenodd" clip-rule="evenodd" d="M 1.86426 0L 14.3694 0C 15.3989 0 16.2336 0.730316 16.2336 1.63123L 16.2336 30.3477C 16.2336 31.2486 15.3989 31.979 14.3694 31.979L 1.86426 31.979C 0.834717 31.979 0 31.2486 0 30.3477L 0 1.63123C 0 0.730316 0.834717 0 1.86426 0ZM 1.86426 70.3902L 14.3694 70.3902C 15.3989 70.3902 16.2336 71.1205 16.2336 72.0214L 16.2336 130.333C 16.2336 131.234 15.3989 131.964 14.3694 131.964L 1.86426 131.964C 0.834717 131.964 0 131.234 0 130.333L 0 72.0214C 0 71.1205 0.834717 70.3902 1.86426 70.3902Z" transform="translate(220.767 131.086)" fill="#BDBDBD"/>
<path id="Phone_BG" d="M 198.967 0L 21.0916 0C 9.44304 0 0 9.44294 0 21.0914L 0 438.909C 0 450.557 9.44304 460 21.0916 460L 198.967 460C 210.615 460 220.059 450.557 220.059 438.909L 220.059 21.0914C 220.059 9.44294 210.615 0 198.967 0Z" transform="translate(15 11)" fill="url(#paint0_linear)"/>
<path id="PhoneFG" d="M 193.882 0L 19.1086 0C 8.55522 0 0 8.55513 0 19.1084L 0 433.202C 0 443.755 8.55522 452.31 19.1086 452.31L 193.882 452.31C 204.436 452.31 212.991 443.755 212.991 433.202L 212.991 19.1084C 212.991 8.55513 204.436 0 193.882 0Z" transform="translate(18.5338 14.8451)" fill="#FAFAFA"/>
<path id="Speakers" fill-rule="evenodd" clip-rule="evenodd" d="M 1.64483 6.13725C 3.21783 7.04539 5.22906 6.50645 6.13726 4.93352C 7.04547 3.36058 6.50665 1.34929 4.93365 0.441146C 3.36065 -0.466996 1.34942 0.0719444 0.441217 1.64488C -0.466986 3.21782 0.0718327 5.22911 1.64483 6.13725ZM 113.551 0.261672L 35.6109 0.261672C 34.1094 0.261672 32.8921 1.47893 32.8921 2.98048C 32.8921 4.48204 34.1094 5.69929 35.6109 5.69929L 113.551 5.69929C 115.053 5.69929 116.27 4.48204 116.27 2.98048C 116.27 1.47893 115.053 0.261672 113.551 0.261672ZM 35.6109 408.924L 113.551 408.924C 115.053 408.924 116.27 410.141 116.27 411.643C 116.27 413.145 115.053 414.362 113.551 414.362L 35.6109 414.362C 34.1094 414.362 32.8921 413.145 32.8921 411.643C 32.8921 410.141 34.1094 408.924 35.6109 408.924Z" transform="translate(50.4487 35.3195)" fill="#E0E0E0"/>
</g>
<g id="Black Screen" clip-path="url(#clip0)">
<rect width="196.385" height="349.608" fill="black" transform="translate(27 66)"/>
<g id="Group 4">
<rect id="Rectangle 10.5" width="196" height="350" transform="translate(27.192 66.4238)" fill="black"/>
<path id="10:00am" d="M 23.0345 22L 21.6327 22L 21.6327 6.67362L 17.0068 8.39083L 17.0068 7.08248L 22.8009 4.93305L 23.0345 4.93305L 23.0345 22ZM 40.0547 14.9092C 40.0547 17.3079 39.6147 19.1302 38.7347 20.3762C 37.8547 21.6145 36.558 22.2336 34.8447 22.2336C 33.1625 22.2336 31.8737 21.6262 30.9781 20.4113C 30.0825 19.1886 29.623 17.413 29.5996 15.0844L 29.5996 12.0355C 29.5996 9.64467 30.0435 7.834 30.9313 6.60353C 31.8191 5.37306 33.1158 4.75783 34.8213 4.75783C 36.5035 4.75783 37.7885 5.35359 38.6763 6.54512C 39.5641 7.72887 40.0236 9.47723 40.0547 11.7902L 40.0547 14.9092ZM 38.6529 11.8603C 38.6529 9.91334 38.3336 8.44145 37.695 7.44461C 37.0642 6.44778 36.1063 5.94936 34.8213 5.94936C 33.5597 5.94936 32.6096 6.4361 31.971 7.40957C 31.3324 8.38304 31.0053 9.81989 30.9897 11.7201L 30.9897 15.0611C 30.9897 17.0002 31.3168 18.4838 31.971 19.5118C 32.633 20.5398 33.5909 21.0538 34.8447 21.0538C 36.0907 21.0538 37.0331 20.5515 37.6717 19.5468C 38.3181 18.5422 38.6451 17.0703 38.6529 15.1312L 38.6529 11.8603ZM 42.9518 21.1589C 42.9518 20.8863 43.0375 20.6566 43.2088 20.4697C 43.3879 20.275 43.6332 20.1777 43.9447 20.1777C 44.2562 20.1777 44.5016 20.275 44.6807 20.4697C 44.8598 20.6566 44.9494 20.8863 44.9494 21.1589C 44.9494 21.4315 44.8598 21.6573 44.6807 21.8365C 44.5016 22.0078 44.2562 22.0935 43.9447 22.0935C 43.6332 22.0935 43.3879 22.0078 43.2088 21.8365C 43.0375 21.6573 42.9518 21.4315 42.9518 21.1589ZM 42.9752 10.3767C 42.9752 10.1041 43.0608 9.87441 43.2322 9.6875C 43.4113 9.4928 43.6566 9.39546 43.9681 9.39546C 44.2796 9.39546 44.5249 9.4928 44.704 9.6875C 44.8832 9.87441 44.9727 10.1041 44.9727 10.3767C 44.9727 10.6493 44.8832 10.8751 44.704 11.0543C 44.5249 11.2256 44.2796 11.3113 43.9681 11.3113C 43.6566 11.3113 43.4113 11.2256 43.2322 11.0543C 43.0608 10.8751 42.9752 10.6493 42.9752 10.3767ZM 58.3483 14.9092C 58.3483 17.3079 57.9082 19.1302 57.0282 20.3762C 56.1482 21.6145 54.8515 22.2336 53.1382 22.2336C 51.4561 22.2336 50.1672 21.6262 49.2716 20.4113C 48.376 19.1886 47.9165 17.413 47.8931 15.0844L 47.8931 12.0355C 47.8931 9.64467 48.337 7.834 49.2249 6.60353C 50.1127 5.37306 51.4093 4.75783 53.1149 4.75783C 54.797 4.75783 56.082 5.35359 56.9698 6.54512C 57.8576 7.72887 58.3171 9.47723 58.3483 11.7902L 58.3483 14.9092ZM 56.9465 11.8603C 56.9465 9.91334 56.6272 8.44145 55.9886 7.44461C 55.3577 6.44778 54.3998 5.94936 53.1149 5.94936C 51.8532 5.94936 50.9031 6.4361 50.2645 7.40957C 49.6259 8.38304 49.2988 9.81989 49.2833 11.7201L 49.2833 15.0611C 49.2833 17.0002 49.6104 18.4838 50.2645 19.5118C 50.9265 20.5398 51.8844 21.0538 53.1382 21.0538C 54.3843 21.0538 55.3266 20.5515 55.9652 19.5468C 56.6116 18.5422 56.9387 17.0703 56.9465 15.1312L 56.9465 11.8603ZM 71.6187 14.9092C 71.6187 17.3079 71.1786 19.1302 70.2986 20.3762C 69.4186 21.6145 68.1219 22.2336 66.4086 22.2336C 64.7265 22.2336 63.4376 21.6262 62.542 20.4113C 61.6464 19.1886 61.1869 17.413 61.1635 15.0844L 61.1635 12.0355C 61.1635 9.64467 61.6074 7.834 62.4953 6.60353C 63.3831 5.37306 64.6797 4.75783 66.3853 4.75783C 68.0674 4.75783 69.3524 5.35359 70.2402 6.54512C 71.128 7.72887 71.5875 9.47723 71.6187 11.7902L 71.6187 14.9092ZM 70.2169 11.8603C 70.2169 9.91334 69.8976 8.44145 69.259 7.44461C 68.6281 6.44778 67.6702 5.94936 66.3853 5.94936C 65.1236 5.94936 64.1735 6.4361 63.5349 7.40957C 62.8963 8.38304 62.5692 9.81989 62.5537 11.7201L 62.5537 15.0611C 62.5537 17.0002 62.8808 18.4838 63.5349 19.5118C 64.1969 20.5398 65.1548 21.0538 66.4086 21.0538C 67.6547 21.0538 68.597 20.5515 69.2356 19.5468C 69.882 18.5422 70.2091 17.0703 70.2169 15.1312L 70.2169 11.8603ZM 82.8331 22C 82.6929 21.6028 82.6033 21.0148 82.5644 20.2361C 82.0738 20.8747 81.4469 21.3692 80.6836 21.7196C 79.9282 22.0623 79.1261 22.2336 78.2772 22.2336C 77.0623 22.2336 76.0772 21.8949 75.3218 21.2173C 74.5741 20.5398 74.2003 19.6831 74.2003 18.6474C 74.2003 17.4169 74.7104 16.4434 75.7306 15.7269C 76.7586 15.0105 78.1877 14.6522 80.0178 14.6522L 82.5527 14.6522L 82.5527 13.2154C 82.5527 12.312 82.2724 11.6033 81.7116 11.0893C 81.1587 10.5675 80.3488 10.3066 79.2818 10.3066C 78.3084 10.3066 77.5023 10.5558 76.8637 11.0543C 76.2251 11.5527 75.9058 12.1523 75.9058 12.8532L 74.504 12.8416C 74.504 11.8369 74.9713 10.9686 75.9058 10.2365C 76.8404 9.4967 77.9891 9.12678 79.3519 9.12678C 80.7615 9.12678 81.8713 9.48112 82.6812 10.1898C 83.4989 10.8907 83.9195 11.872 83.9428 13.1336L 83.9428 19.1146C 83.9428 20.3373 84.0713 21.2524 84.3283 21.8598L 84.3283 22L 82.8331 22ZM 78.4408 20.9954C 79.3753 20.9954 80.2086 20.7695 80.9406 20.3178C 81.6805 19.8661 82.2178 19.2626 82.5527 18.5072L 82.5527 15.7269L 80.0528 15.7269C 78.6588 15.7425 77.5685 15.9995 76.782 16.4979C 75.9954 16.9886 75.6021 17.6661 75.6021 18.5305C 75.6021 19.2392 75.863 19.8272 76.3848 20.2945C 76.9144 20.7617 77.5997 20.9954 78.4408 20.9954ZM 88.9543 9.36041L 89.001 11.4164C 89.4683 10.6532 90.0524 10.0808 90.7533 9.69918C 91.4542 9.31758 92.2329 9.12678 93.0896 9.12678C 95.0833 9.12678 96.3488 9.9445 96.8862 11.5799C 97.3378 10.7934 97.9414 10.1898 98.6968 9.76927C 99.4522 9.34094 100.286 9.12678 101.197 9.12678C 103.907 9.12678 105.289 10.6065 105.344 13.5658L 105.344 22L 103.942 22L 103.942 13.671C 103.934 12.5417 103.689 11.7045 103.206 11.1594C 102.731 10.6142 101.952 10.3417 100.87 10.3417C 99.865 10.3572 99.0161 10.6843 98.323 11.3229C 97.6299 11.9537 97.2444 12.7247 97.1665 13.6359L 97.1665 22L 95.7647 22L 95.7647 13.5658C 95.7569 12.4833 95.4999 11.6773 94.9937 11.1477C 94.4953 10.6104 93.7243 10.3417 92.6807 10.3417C 91.8007 10.3417 91.0453 10.5948 90.4145 11.101C 89.7837 11.5994 89.3164 12.3431 89.0127 13.3322L 89.0127 22L 87.6109 22L 87.6109 9.36041L 88.9543 9.36041Z" transform="translate(64.0001 118.424)" fill="white"/>
<g id="Group 2">
<path id="72&#203;&#154;F &#38; Pretty Nice" d="M 51.093 3.74143L 46.941 13L 46.1066 13L 50.2319 3.96171L 44.7048 3.96171L 44.7048 3.28083L 51.093 3.28083L 51.093 3.74143ZM 58.7762 13L 52.6884 13L 52.6884 12.3859L 56.0193 8.60768C 56.5712 7.97131 56.9539 7.44619 57.1675 7.03233C 57.3811 6.61846 57.4879 6.21572 57.4879 5.8241C 57.4879 5.20998 57.3077 4.72491 56.9472 4.3689C 56.5867 4.00844 56.0905 3.8282 55.4586 3.8282C 54.8044 3.8282 54.2749 4.03736 53.8699 4.45568C 53.4694 4.87399 53.2691 5.41691 53.2691 6.08444L 52.4748 6.08444C 52.4748 5.53707 52.5972 5.03865 52.8419 4.58918C 53.0911 4.13972 53.4427 3.78815 53.8966 3.53449C 54.355 3.27638 54.8757 3.14733 55.4586 3.14733C 56.3487 3.14733 57.0429 3.38096 57.5413 3.84823C 58.0442 4.3155 58.2956 4.95187 58.2956 5.75735C 58.2956 6.21127 58.1532 6.70746 57.8684 7.24593C 57.588 7.7844 57.0918 8.45638 56.3798 9.26186L 53.6697 12.3258L 58.7762 12.3258L 58.7762 13ZM 60.138 3.68802C 60.138 3.33201 60.2626 3.03162 60.5118 2.78687C 60.7654 2.54211 61.0703 2.41973 61.4263 2.41973C 61.7779 2.41973 62.0805 2.54211 62.3341 2.78687C 62.5878 3.03162 62.7146 3.33201 62.7146 3.68802C 62.7146 4.03959 62.5922 4.33552 62.3475 4.57583C 62.1027 4.81614 61.7957 4.9363 61.4263 4.9363C 61.0569 4.9363 60.7499 4.81614 60.5051 4.57583C 60.2604 4.33552 60.138 4.03959 60.138 3.68802ZM 60.652 3.68802C 60.652 3.91053 60.7254 4.09521 60.8723 4.24207C 61.0191 4.38893 61.2038 4.46235 61.4263 4.46235C 61.6444 4.46235 61.829 4.39115 61.9803 4.24875C 62.1317 4.10189 62.2073 3.91498 62.2073 3.68802C 62.2073 3.45217 62.1294 3.26081 61.9737 3.11395C 61.8179 2.9671 61.6355 2.89367 61.4263 2.89367C 61.2082 2.89367 61.0236 2.96932 60.8723 3.12063C 60.7254 3.27193 60.652 3.46107 60.652 3.68802ZM 70.1842 8.46083L 65.6517 8.46083L 65.6517 13L 64.8307 13L 64.8307 3.28083L 70.8518 3.28083L 70.8518 3.98174L 65.6517 3.98174L 65.6517 7.75993L 70.1842 7.75993L 70.1842 8.46083ZM 77.3134 7.69985C 76.9262 7.23258 76.6436 6.81649 76.4656 6.45158C 76.2921 6.08221 76.2053 5.7173 76.2053 5.35684C 76.2053 4.67596 76.4078 4.13749 76.8128 3.74143C 77.2177 3.34536 77.7606 3.14733 78.4415 3.14733C 79.0601 3.14733 79.5607 3.32756 79.9434 3.68802C 80.3262 4.04404 80.5175 4.49795 80.5175 5.04978C 80.5175 5.6906 80.1482 6.3203 79.4094 6.93887L 78.3414 7.7666L 81.0115 10.8773C 81.4164 10.2231 81.6189 9.48214 81.6189 8.65441L 82.3599 8.65441C 82.3599 9.75805 82.0751 10.6904 81.5055 11.4513L 82.8338 13L 81.8726 13L 81.0315 12.0254C 80.6799 12.3725 80.2728 12.644 79.8099 12.8398C 79.3516 13.0356 78.8665 13.1335 78.3547 13.1335C 77.4291 13.1335 76.6948 12.8976 76.1519 12.4259C 75.609 11.9498 75.3375 11.3156 75.3375 10.5235C 75.3375 10.0518 75.4755 9.60675 75.7514 9.18843C 76.0317 8.76567 76.5213 8.29172 77.2199 7.7666L 77.3134 7.69985ZM 78.3547 12.4593C 78.7597 12.4593 79.1513 12.3748 79.5296 12.2056C 79.9123 12.0321 80.255 11.7873 80.5576 11.4714L 77.8407 8.32065L 77.7473 8.22052L 77.4402 8.45415C 76.568 9.16618 76.1319 9.85596 76.1319 10.5235C 76.1319 11.1065 76.3321 11.5759 76.7326 11.932C 77.1332 12.2835 77.6739 12.4593 78.3547 12.4593ZM 77.0063 5.33014C 77.0063 5.87306 77.3067 6.51388 77.9075 7.25261L 78.7819 6.58508C 79.0668 6.38038 79.3004 6.15564 79.4829 5.91088C 79.6653 5.66612 79.7565 5.37909 79.7565 5.04978C 79.7565 4.70266 79.6364 4.4134 79.3961 4.18199C 79.1558 3.94613 78.8354 3.8282 78.4348 3.8282C 77.9987 3.8282 77.6516 3.96838 77.3935 4.24875C 77.1354 4.52911 77.0063 4.88957 77.0063 5.33014ZM 88.401 9.04158L 88.401 13L 87.5799 13L 87.5799 3.28083L 90.8909 3.28083C 91.901 3.28083 92.6976 3.53894 93.2806 4.05516C 93.868 4.57138 94.1617 5.28118 94.1617 6.18457C 94.1617 7.09685 93.8791 7.8022 93.314 8.30062C 92.7533 8.79459 91.9389 9.04158 90.8708 9.04158L 88.401 9.04158ZM 88.401 8.34735L 90.8909 8.34735C 91.6874 8.34735 92.2949 8.15822 92.7132 7.77995C 93.1315 7.40169 93.3407 6.87434 93.3407 6.19792C 93.3407 5.52594 93.1315 4.99192 92.7132 4.59586C 92.2993 4.19534 91.7097 3.99064 90.9443 3.98174L 88.401 3.98174L 88.401 8.34735ZM 99.1548 6.45825C 98.9857 6.4271 98.8055 6.41153 98.6141 6.41153C 98.1157 6.41153 97.6929 6.55171 97.3458 6.83207C 97.0032 7.10798 96.7584 7.51072 96.6115 8.04029L 96.6115 13L 95.8172 13L 95.8172 5.77738L 96.5982 5.77738L 96.6115 6.92552C 97.0343 6.07109 97.713 5.64387 98.6475 5.64387C 98.87 5.64387 99.0458 5.6728 99.1748 5.73065L 99.1548 6.45825ZM 103.087 13.1335C 102.472 13.1335 101.916 12.9822 101.418 12.6796C 100.924 12.377 100.539 11.9564 100.263 11.418C 99.987 10.875 99.849 10.2676 99.849 9.59562L 99.849 9.30859C 99.849 8.61436 99.9826 7.98911 100.25 7.43284C 100.521 6.87657 100.897 6.44045 101.378 6.12449C 101.858 5.80408 102.379 5.64387 102.94 5.64387C 103.816 5.64387 104.511 5.94426 105.022 6.54503C 105.539 7.14135 105.797 7.95796 105.797 8.99485L 105.797 9.44209L 100.643 9.44209L 100.643 9.59562C 100.643 10.4145 100.877 11.0976 101.344 11.6449C 101.816 12.1878 102.408 12.4593 103.12 12.4593C 103.547 12.4593 103.923 12.3814 104.248 12.2257C 104.577 12.0699 104.876 11.8207 105.143 11.478L 105.643 11.8585C 105.056 12.7085 104.204 13.1335 103.087 13.1335ZM 102.94 6.32475C 102.339 6.32475 101.832 6.54503 101.418 6.9856C 101.008 7.42617 100.759 8.01804 100.67 8.76122L 105.002 8.76122L 105.002 8.67444C 104.98 7.98021 104.782 7.41504 104.408 6.97892C 104.034 6.54281 103.545 6.32475 102.94 6.32475ZM 108.594 3.92833L 108.594 5.77738L 110.089 5.77738L 110.089 6.43155L 108.594 6.43155L 108.594 11.2444C 108.594 11.6449 108.665 11.9431 108.807 12.1389C 108.954 12.3347 109.197 12.4326 109.535 12.4326C 109.668 12.4326 109.884 12.4104 110.182 12.3659L 110.216 13.02C 110.007 13.0957 109.722 13.1335 109.361 13.1335C 108.814 13.1335 108.416 12.9755 108.166 12.6596C 107.917 12.3392 107.793 11.8697 107.793 11.2511L 107.793 6.43155L 106.464 6.43155L 106.464 5.77738L 107.793 5.77738L 107.793 3.92833L 108.594 3.92833ZM 112.986 3.92833L 112.986 5.77738L 114.481 5.77738L 114.481 6.43155L 112.986 6.43155L 112.986 11.2444C 112.986 11.6449 113.057 11.9431 113.2 12.1389C 113.346 12.3347 113.589 12.4326 113.927 12.4326C 114.061 12.4326 114.276 12.4104 114.575 12.3659L 114.608 13.02C 114.399 13.0957 114.114 13.1335 113.754 13.1335C 113.206 13.1335 112.808 12.9755 112.559 12.6596C 112.31 12.3392 112.185 11.8697 112.185 11.2511L 112.185 6.43155L 110.857 6.43155L 110.857 5.77738L 112.185 5.77738L 112.185 3.92833L 112.986 3.92833ZM 118.426 11.8519L 120.536 5.77738L 121.397 5.77738L 118.313 14.2282L 118.153 14.6021C 117.757 15.4787 117.145 15.9171 116.317 15.9171C 116.126 15.9171 115.921 15.8859 115.703 15.8236L 115.696 15.1628L 116.11 15.2028C 116.502 15.2028 116.818 15.1049 117.058 14.9091C 117.303 14.7178 117.51 14.3862 117.679 13.9145L 118.032 12.9399L 115.309 5.77738L 116.183 5.77738L 118.426 11.8519ZM 133.386 13L 132.564 13L 126.977 4.68264L 126.977 13L 126.15 13L 126.15 3.28083L 126.977 3.28083L 132.571 11.6049L 132.571 3.28083L 133.386 3.28083L 133.386 13ZM 136.563 13L 135.762 13L 135.762 5.77738L 136.563 5.77738L 136.563 13ZM 135.622 3.68802C 135.622 3.53672 135.671 3.40989 135.769 3.30754C 135.866 3.20073 136 3.14733 136.169 3.14733C 136.338 3.14733 136.472 3.20073 136.57 3.30754C 136.672 3.40989 136.723 3.53672 136.723 3.68802C 136.723 3.83933 136.672 3.96616 136.57 4.06851C 136.472 4.17087 136.338 4.22204 136.169 4.22204C 136 4.22204 135.866 4.17087 135.769 4.06851C 135.671 3.96616 135.622 3.83933 135.622 3.68802ZM 141.409 12.4593C 141.965 12.4593 142.43 12.3035 142.804 11.992C 143.183 11.6761 143.387 11.2689 143.418 10.7705L 144.186 10.7705C 144.164 11.211 144.026 11.6138 143.772 11.9787C 143.519 12.3392 143.18 12.6217 142.758 12.8264C 142.339 13.0312 141.89 13.1335 141.409 13.1335C 140.461 13.1335 139.709 12.8042 139.153 12.1456C 138.601 11.4869 138.325 10.6014 138.325 9.48882L 138.325 9.24851C 138.325 8.53648 138.45 7.90678 138.699 7.35941C 138.948 6.81204 139.304 6.38928 139.767 6.09111C 140.234 5.79295 140.779 5.64387 141.402 5.64387C 142.195 5.64387 142.847 5.87973 143.358 6.35145C 143.875 6.82317 144.15 7.44397 144.186 8.21384L 143.418 8.21384C 143.383 7.64867 143.178 7.19253 142.804 6.84542C 142.435 6.49831 141.968 6.32475 141.402 6.32475C 140.682 6.32475 140.121 6.58508 139.72 7.10575C 139.324 7.62642 139.126 8.35625 139.126 9.29524L 139.126 9.52887C 139.126 10.4501 139.324 11.1688 139.72 11.685C 140.121 12.2012 140.684 12.4593 141.409 12.4593ZM 148.585 13.1335C 147.971 13.1335 147.415 12.9822 146.916 12.6796C 146.422 12.377 146.037 11.9564 145.761 11.418C 145.486 10.875 145.348 10.2676 145.348 9.59562L 145.348 9.30859C 145.348 8.61436 145.481 7.98911 145.748 7.43284C 146.02 6.87657 146.396 6.44045 146.876 6.12449C 147.357 5.80408 147.877 5.64387 148.438 5.64387C 149.315 5.64387 150.009 5.94426 150.521 6.54503C 151.037 7.14135 151.295 7.95796 151.295 8.99485L 151.295 9.44209L 146.142 9.44209L 146.142 9.59562C 146.142 10.4145 146.376 11.0976 146.843 11.6449C 147.315 12.1878 147.906 12.4593 148.618 12.4593C 149.046 12.4593 149.422 12.3814 149.747 12.2257C 150.076 12.0699 150.374 11.8207 150.641 11.478L 151.142 11.8585C 150.554 12.7085 149.702 13.1335 148.585 13.1335ZM 148.438 6.32475C 147.837 6.32475 147.33 6.54503 146.916 6.9856C 146.507 7.42617 146.258 8.01804 146.169 8.76122L 150.501 8.76122L 150.501 8.67444C 150.479 7.98021 150.281 7.41504 149.907 6.97892C 149.533 6.54281 149.043 6.32475 148.438 6.32475Z" transform="translate(27.0001 211.424)" fill="white"/>
<path id="Go Outside" d="M 41.376 9.13389C 41.1624 9.43761 40.827 9.67458 40.3698 9.8448C 39.9158 10.015 39.4068 10.1001 38.8428 10.1001C 38.2721 10.1001 37.7647 9.96329 37.3208 9.6896C 36.8769 9.41592 36.5332 9.02875 36.2895 8.52811C 36.0459 8.02746 35.9224 7.45339 35.919 6.80589L 35.919 5.88471C 35.919 4.87341 36.1744 4.07571 36.685 3.49163C 37.1957 2.90421 37.8816 2.6105 38.7427 2.6105C 39.4936 2.6105 40.0977 2.80241 40.555 3.18624C 41.0122 3.56673 41.2843 4.0924 41.371 4.76327L 40.7552 4.76327C 40.6651 4.22925 40.4465 3.82539 40.0994 3.55171C 39.7556 3.27468 39.3051 3.13617 38.7477 3.13617C 38.0668 3.13617 37.5278 3.37815 37.1306 3.86211C 36.7334 4.34606 36.5348 5.02861 36.5348 5.90974L 36.5348 6.77085C 36.5348 7.32489 36.6283 7.81552 36.8152 8.24274C 37.0054 8.66662 37.2758 8.99537 37.6262 9.22901C 37.98 9.46264 38.3855 9.57946 38.8428 9.57946C 39.3735 9.57946 39.8291 9.49602 40.2095 9.32914C 40.4565 9.219 40.6401 9.0905 40.7603 8.94364L 40.7603 7.06122L 38.8027 7.06122L 38.8027 6.54055L 41.376 6.54055L 41.376 9.13389ZM 42.6527 7.21141C 42.6527 6.69074 42.7528 6.22181 42.9531 5.8046C 43.1567 5.3874 43.442 5.06365 43.8092 4.83336C 44.1797 4.59972 44.5985 4.4829 45.0658 4.4829C 45.7867 4.4829 46.3708 4.73656 46.818 5.24388C 47.2653 5.74786 47.4889 6.41706 47.4889 7.25147L 47.4889 7.37663C 47.4889 7.90063 47.3871 8.37291 47.1835 8.79345C 46.9833 9.21065 46.6996 9.53273 46.3324 9.75969C 45.9653 9.98665 45.5464 10.1001 45.0758 10.1001C 44.3582 10.1001 43.7741 9.84814 43.3236 9.34416C 42.8763 8.83684 42.6527 8.16597 42.6527 7.33157L 42.6527 7.21141ZM 43.2535 7.37663C 43.2535 8.02413 43.4203 8.55648 43.7541 8.97368C 44.0912 9.38755 44.5318 9.59448 45.0758 9.59448C 45.6165 9.59448 46.0537 9.38755 46.3875 8.97368C 46.7246 8.55648 46.8931 8.00744 46.8931 7.32656L 46.8931 7.21141C 46.8931 6.79755 46.8164 6.41873 46.6628 6.07495C 46.5093 5.73118 46.294 5.46584 46.017 5.27893C 45.74 5.08868 45.4229 4.99356 45.0658 4.99356C 44.5318 4.99356 44.0962 5.20383 43.7591 5.62437C 43.422 6.04158 43.2535 6.58895 43.2535 7.26648L 43.2535 7.37663ZM 56.7508 6.75082C 56.7508 7.42168 56.634 8.01078 56.4004 8.51809C 56.1701 9.02541 55.8397 9.41592 55.4091 9.6896C 54.9785 9.96329 54.4812 10.1001 53.9172 10.1001C 53.0661 10.1001 52.3785 9.7964 51.8545 9.18896C 51.3305 8.57817 51.0685 7.75545 51.0685 6.72078L 51.0685 5.96982C 51.0685 5.30563 51.1853 4.71821 51.419 4.20755C 51.6559 3.69356 51.9897 3.29972 52.4203 3.02603C 52.8508 2.74901 53.3464 2.6105 53.9072 2.6105C 54.4679 2.6105 54.9619 2.74567 55.3891 3.01602C 55.8196 3.28637 56.1517 3.66852 56.3854 4.16249C 56.619 4.65646 56.7408 5.22886 56.7508 5.8797L 56.7508 6.75082ZM 56.135 5.9598C 56.135 5.08201 55.9364 4.39446 55.5393 3.89715C 55.1421 3.39985 54.5981 3.15119 53.9072 3.15119C 53.2296 3.15119 52.6889 3.40151 52.2851 3.90216C 51.8846 4.39946 51.6843 5.09536 51.6843 5.98984L 51.6843 6.75082C 51.6843 7.61527 51.8846 8.30115 52.2851 8.80847C 52.6856 9.31245 53.2296 9.56444 53.9172 9.56444C 54.6147 9.56444 55.1588 9.31579 55.5493 8.81848C 55.9398 8.31784 56.135 7.62194 56.135 6.7308L 56.135 5.9598ZM 61.6471 9.31412C 61.2867 9.83813 60.7109 10.1001 59.9199 10.1001C 59.3425 10.1001 58.9036 9.93325 58.6032 9.59948C 58.3028 9.26238 58.1493 8.76508 58.1426 8.10757L 58.1426 4.58303L 58.7384 4.58303L 58.7384 8.03247C 58.7384 9.0638 59.1556 9.57946 59.99 9.57946C 60.8578 9.57946 61.4068 9.22066 61.6371 8.50307L 61.6371 4.58303L 62.2379 4.58303L 62.2379 10L 61.6571 10L 61.6471 9.31412ZM 64.7311 3.19625L 64.7311 4.58303L 65.8525 4.58303L 65.8525 5.07366L 64.7311 5.07366L 64.7311 8.68331C 64.7311 8.98369 64.7845 9.20731 64.8913 9.35417C 65.0014 9.50102 65.1833 9.57445 65.437 9.57445C 65.5371 9.57445 65.699 9.55776 65.9226 9.52439L 65.9476 10.015C 65.7908 10.0718 65.5772 10.1001 65.3068 10.1001C 64.8963 10.1001 64.5976 9.98164 64.4107 9.74467C 64.2238 9.50436 64.1303 9.15224 64.1303 8.68831L 64.1303 5.07366L 63.134 5.07366L 63.134 4.58303L 64.1303 4.58303L 64.1303 3.19625L 64.7311 3.19625ZM 70.3383 8.62323C 70.3383 8.32618 70.2181 8.08754 69.9778 7.90731C 69.7409 7.72708 69.3821 7.5869 68.9014 7.48677C 68.4208 7.3833 68.047 7.26648 67.78 7.13632C 67.5163 7.00281 67.3194 6.84094 67.1892 6.65069C 67.0624 6.46045 66.999 6.23015 66.999 5.9598C 66.999 5.53259 67.1776 5.18047 67.5347 4.90345C 67.8918 4.62308 68.3491 4.4829 68.9065 4.4829C 69.5106 4.4829 69.9945 4.6331 70.3583 4.93348C 70.7255 5.23053 70.909 5.61937 70.909 6.09998L 70.3083 6.09998C 70.3083 5.78291 70.1748 5.51924 69.9077 5.30897C 69.6441 5.0987 69.3103 4.99356 68.9065 4.99356C 68.5126 4.99356 68.1955 5.08201 67.9552 5.2589C 67.7183 5.43246 67.5998 5.65942 67.5998 5.93978C 67.5998 6.21013 67.6982 6.4204 67.8952 6.57059C 68.0954 6.71745 68.4575 6.85262 68.9815 6.97611C 69.5089 7.0996 69.9027 7.23144 70.1631 7.37162C 70.4267 7.5118 70.622 7.68035 70.7488 7.87727C 70.8757 8.07419 70.9391 8.31283 70.9391 8.59319C 70.9391 9.05045 70.7538 9.41592 70.3834 9.6896C 70.0162 9.96329 69.5356 10.1001 68.9415 10.1001C 68.3107 10.1001 67.7984 9.94827 67.4045 9.64454C 67.014 9.33748 66.8188 8.95032 66.8188 8.48305L 67.4195 8.48305C 67.4429 8.8335 67.5898 9.10719 67.8601 9.30411C 68.1338 9.49769 68.4943 9.59448 68.9415 9.59448C 69.3587 9.59448 69.6958 9.50269 69.9528 9.31912C 70.2098 9.13555 70.3383 8.90359 70.3383 8.62323ZM 72.9617 10L 72.3609 10L 72.3609 4.58303L 72.9617 4.58303L 72.9617 10ZM 72.2558 3.01602C 72.2558 2.90254 72.2925 2.80742 72.3659 2.73065C 72.4393 2.65055 72.5395 2.6105 72.6663 2.6105C 72.7931 2.6105 72.8932 2.65055 72.9667 2.73065C 73.0434 2.80742 73.0818 2.90254 73.0818 3.01602C 73.0818 3.1295 73.0434 3.22462 72.9667 3.30139C 72.8932 3.37815 72.7931 3.41653 72.6663 3.41653C 72.5395 3.41653 72.4393 3.37815 72.3659 3.30139C 72.2925 3.22462 72.2558 3.1295 72.2558 3.01602ZM 74.3535 7.24145C 74.3535 6.40037 74.5404 5.73118 74.9142 5.23387C 75.2913 4.73323 75.802 4.4829 76.4461 4.4829C 77.1771 4.4829 77.7345 4.77161 78.1183 5.34902L 78.1183 2.31011L 78.7141 2.31011L 78.7141 10L 78.1533 10L 78.1283 9.27907C 77.7445 9.82644 77.1804 10.1001 76.4361 10.1001C 75.812 10.1001 75.308 9.84981 74.9242 9.34916C 74.5437 8.84518 74.3535 8.16597 74.3535 7.31154L 74.3535 7.24145ZM 74.9592 7.34659C 74.9592 8.03748 75.0977 8.58318 75.3748 8.98369C 75.6518 9.38087 76.0423 9.57946 76.5463 9.57946C 77.2839 9.57946 77.8079 9.25404 78.1183 8.6032L 78.1183 6.05993C 77.8079 5.35569 77.2872 5.00357 76.5563 5.00357C 76.0523 5.00357 75.6601 5.20216 75.3798 5.59934C 75.0994 5.99318 74.9592 6.5756 74.9592 7.34659ZM 82.3888 10.1001C 81.9282 10.1001 81.511 9.98665 81.1372 9.75969C 80.7667 9.53273 80.478 9.21733 80.2711 8.81347C 80.0641 8.40628 79.9607 7.9507 79.9607 7.44672L 79.9607 7.23144C 79.9607 6.71077 80.0608 6.24183 80.2611 5.82463C 80.4646 5.40743 80.7467 5.08034 81.1071 4.84337C 81.4676 4.60306 81.8581 4.4829 82.2786 4.4829C 82.9362 4.4829 83.4568 4.70819 83.8407 5.15877C 84.2278 5.60602 84.4214 6.21847 84.4214 6.99614L 84.4214 7.33157L 80.5564 7.33157L 80.5564 7.44672C 80.5564 8.06084 80.7317 8.57317 81.0821 8.98369C 81.4359 9.39088 81.8798 9.59448 82.4138 9.59448C 82.7342 9.59448 83.0163 9.53607 83.2599 9.41925C 83.5069 9.30244 83.7305 9.11553 83.9308 8.85853L 84.3063 9.1439C 83.8657 9.78139 83.2265 10.1001 82.3888 10.1001ZM 82.2786 4.99356C 81.8281 4.99356 81.4476 5.15877 81.1372 5.4892C 80.8301 5.81962 80.6432 6.26353 80.5765 6.82091L 83.8256 6.82091L 83.8256 6.75583C 83.8089 6.23516 83.6604 5.81128 83.3801 5.48419C 83.0997 5.15711 82.7326 4.99356 82.2786 4.99356Z" transform="translate(65.192 234.424)" fill="white"/>
<path id="Ellipse" d="M 19.4096 9.93732C 19.4096 15.1904 15.1595 19.4474 9.91842 19.4474C 4.67734 19.4474 0.427216 15.1904 0.427216 9.93732C 0.427216 4.68427 4.67734 0.427216 9.91842 0.427216C 15.1595 0.427216 19.4096 4.68427 19.4096 9.93732Z" transform="translate(114.751 178.788)" stroke="white" stroke-width="0.854432"/>
<g id="Rectangle 11" transform="translate(108.116 184.773)">
<rect width="14.5154" height="4.27509" rx="2.13755" fill="black"/>
<rect x="0.427216" y="0.427216" width="13.661" height="3.42066" rx="1.71033" stroke="white" stroke-width="0.854432"/>
</g>
<g id="Rectangle 11.2" transform="translate(130.316 189.048)">
<rect width="9.39231" height="4.27509" rx="2.13755" fill="black"/>
<rect x="0.427216" y="0.427216" width="8.53788" height="3.42066" rx="1.71033" stroke="white" stroke-width="0.854432"/>
</g>
</g>
</g>
<g id="Status bar" opacity="0.25">
<g id="Bars/Status bar Content White">
<g id="time" opacity="0.9">
<path id="12:30" d="M 3.10699 7L 2.20074 7L 2.20074 2.62229L 0.863833 3.07916L 0.863833 2.31147L 2.9909 1.5288L 3.10699 1.5288L 3.10699 7ZM 8.66806 7L 5.00187 7L 5.00187 6.37461L 6.81812 4.3936C 7.08025 4.1015 7.26625 3.85809 7.3761 3.66335C 7.48844 3.46613 7.54461 3.2689 7.54461 3.07167C 7.54461 2.81203 7.47097 2.60232 7.32367 2.44254C 7.17887 2.28276 6.98289 2.20287 6.73573 2.20287C 6.44114 2.20287 6.2127 2.29275 6.05043 2.4725C 5.88815 2.65225 5.80701 2.89816 5.80701 3.21023L 4.89702 3.21023C 4.89702 2.87819 4.97191 2.57985 5.12171 2.31521C 5.274 2.04808 5.48995 1.84087 5.76956 1.69357C 6.05167 1.54628 6.37623 1.47263 6.74322 1.47263C 7.27249 1.47263 7.68941 1.60619 7.99399 1.87332C 8.30107 2.13796 8.45461 2.50495 8.45461 2.97431C 8.45461 3.24643 8.37721 3.53229 8.22243 3.83187C 8.07014 4.12896 7.81923 4.46725 7.46972 4.84672L 6.13656 6.2735L 8.66806 6.2735L 8.66806 7ZM 9.96752 6.04132C 10.1373 6.04132 10.2684 6.09001 10.3607 6.18737C 10.4531 6.28224 10.4993 6.40208 10.4993 6.54688C 10.4993 6.68918 10.4531 6.80777 10.3607 6.90263C 10.2684 6.99501 10.1373 7.04119 9.96752 7.04119C 9.80524 7.04119 9.67667 6.99501 9.5818 6.90263C 9.48693 6.81026 9.4395 6.69168 9.4395 6.54688C 9.4395 6.40208 9.48569 6.28224 9.57806 6.18737C 9.67043 6.09001 9.80025 6.04132 9.96752 6.04132ZM 9.96752 2.86196C 10.1373 2.86196 10.2684 2.91064 10.3607 3.00801C 10.4531 3.10288 10.4993 3.22271 10.4993 3.36751C 10.4993 3.50982 10.4531 3.6284 10.3607 3.72327C 10.2684 3.81564 10.1373 3.86183 9.96752 3.86183C 9.80524 3.86183 9.67667 3.81564 9.5818 3.72327C 9.48693 3.6309 9.4395 3.51231 9.4395 3.36751C 9.4395 3.22271 9.48569 3.10288 9.57806 3.00801C 9.67043 2.91064 9.80025 2.86196 9.96752 2.86196ZM 12.4503 3.85809L 13.0046 3.85809C 13.2842 3.85559 13.5051 3.78319 13.6674 3.64089C 13.8322 3.49858 13.9146 3.29262 13.9146 3.02299C 13.9146 2.76335 13.8459 2.56237 13.7086 2.42007C 13.5738 2.27527 13.3666 2.20287 13.087 2.20287C 12.8423 2.20287 12.6413 2.27402 12.484 2.41633C 12.3268 2.55613 12.2481 2.73963 12.2481 2.96682L 11.3381 2.96682C 11.3381 2.6872 11.4118 2.43255 11.5591 2.20287C 11.7089 1.97319 11.9161 1.79468 12.1807 1.66736C 12.4478 1.53754 12.7462 1.47263 13.0757 1.47263C 13.62 1.47263 14.0469 1.60994 14.3565 1.88456C 14.6685 2.15668 14.8246 2.53616 14.8246 3.02299C 14.8246 3.26765 14.7459 3.49858 14.5886 3.71578C 14.4339 3.93049 14.2329 4.09276 13.9857 4.20261C 14.2853 4.30497 14.5125 4.466 14.6673 4.68569C 14.8246 4.90539 14.9032 5.16753 14.9032 5.47211C 14.9032 5.96143 14.7347 6.3509 14.3977 6.6405C 14.0631 6.9301 13.6225 7.0749 13.0757 7.0749C 12.5515 7.0749 12.122 6.93509 11.7875 6.65548C 11.453 6.37586 11.2857 6.00387 11.2857 5.53952L 12.1957 5.53952C 12.1957 5.77918 12.2756 5.97392 12.4354 6.12371C 12.5976 6.2735 12.8148 6.3484 13.087 6.3484C 13.3691 6.3484 13.5913 6.2735 13.7535 6.12371C 13.9158 5.97392 13.997 5.75672 13.997 5.47211C 13.997 5.185 13.9121 4.96406 13.7423 4.80927C 13.5725 4.65449 13.3204 4.57709 12.9859 4.57709L 12.4503 4.57709L 12.4503 3.85809ZM 19.3109 4.70442C 19.3109 5.48834 19.1636 6.08002 18.869 6.47947C 18.5769 6.87642 18.1313 7.0749 17.5321 7.0749C 16.9429 7.0749 16.4985 6.88141 16.1989 6.49445C 15.9018 6.10499 15.7495 5.52953 15.7421 4.76808L 15.7421 3.82438C 15.7421 3.04046 15.8881 2.45253 16.1802 2.06057C 16.4748 1.66861 16.9229 1.47263 17.5246 1.47263C 18.1213 1.47263 18.5657 1.66361 18.8578 2.04559C 19.1523 2.42756 19.3034 2.99927 19.3109 3.76072L 19.3109 4.70442ZM 18.4009 3.68582C 18.4009 3.17403 18.331 2.79955 18.1912 2.56237C 18.0514 2.3227 17.8292 2.20287 17.5246 2.20287C 17.2275 2.20287 17.0091 2.31646 16.8692 2.54365C 16.7294 2.76834 16.6558 3.12035 16.6483 3.59969L 16.6483 4.83549C 16.6483 5.34478 16.7195 5.72426 16.8618 5.97392C 17.0041 6.22357 17.2275 6.3484 17.5321 6.3484C 17.8242 6.3484 18.0401 6.23356 18.1799 6.00387C 18.3197 5.7717 18.3934 5.40969 18.4009 4.91787L 18.4009 3.68582Z" transform="translate(199.261 67.6447)" fill="white"/>
</g>
<g id="battery">
<path id="Shape" fill-rule="evenodd" clip-rule="evenodd" d="M 3.28464 0.479668L 3.28464 0L 1.64232 0L 1.64232 0.479668L 0 0.479668L 0 7.67468L 4.92696 7.67468L 4.92696 0.479668L 3.28464 0.479668Z" transform="translate(190.502 68.7411)" fill="white"/>
</g>
<g id="cellular">
<path id="Shape_2" fill-rule="evenodd" clip-rule="evenodd" d="M 0 7.67468L 7.66416 7.67468L 7.66416 0L 0 7.67468Z" transform="translate(177.911 69.2893)" fill="white"/>
</g>
<g id="wifi">
<path id="Shape_3" fill-rule="evenodd" clip-rule="evenodd" d="M 0 1.65332L 4.93945 7.67468L 9.87866 1.65329C 8.50415 0.615387 6.7937 0 4.93945 0C 3.08521 0 1.37451 0.615387 0 1.65332Z" transform="translate(166.949 68.7412)" fill="white"/>
</g>
</g>
</g>
<rect id="Rectangle" opacity="0.35" width="34" height="2" rx="1" transform="translate(109 408.424)" fill="white"/>
<g id="Spotify">
<path id="Vector" d="M 11.5 23C 17.8513 23 23 17.8513 23 11.5C 23 5.14873 17.8513 0 11.5 0C 5.14873 0 0 5.14873 0 11.5C 0 17.8513 5.14873 23 11.5 23Z" transform="translate(167 362)" fill="#B3B3B3"/>
<g id="Vector_2" transform="translate(170.536 368.047)">
<path d="M 12.5803 10.9352C 12.4429 10.9352 12.3193 10.894 12.1956 10.8253C 7.66156 8.10489 2.28939 9.6712 2.23443 9.69868C 1.83599 9.82233 1.41006 9.58876 1.28641 9.19031C 1.16275 8.79187 1.39632 8.36594 1.79477 8.24229C 2.04208 8.17359 7.85391 6.44241 12.965 9.52006C 13.3222 9.7399 13.4322 10.1933 13.2261 10.5505C 13.0887 10.7978 12.8414 10.9352 12.5803 10.9352Z" fill="black"/>
<path d="M 13.8856 7.83009C 13.7344 7.83009 13.5833 7.78888 13.4459 7.70644C 7.75772 4.43643 2.01459 6.33248 1.95963 6.35996C 1.49249 6.52484 0.984127 6.27753 0.819252 5.81038C 0.654377 5.34324 0.901689 4.83487 1.36883 4.67C 1.62989 4.57382 7.93634 2.48541 14.3252 6.15387C 14.7512 6.40118 14.9023 6.95076 14.655 7.37669C 14.5038 7.66522 14.2016 7.83009 13.8856 7.83009Z" fill="black"/>
<path d="M 15.3007 4.31277C 15.1221 4.31277 14.9573 4.27155 14.7924 4.18912C 8.23861 0.740491 1.4925 2.80142 1.4238 2.8289C 0.846739 3.00752 0.22846 2.69151 0.0498458 2.11445C -0.128768 1.53738 0.187241 0.919105 0.764302 0.740491C 1.08031 0.644314 8.44471 -1.60897 15.8091 2.25184C 16.3449 2.54037 16.551 3.19987 16.2762 3.73571C 16.0839 4.09294 15.6992 4.31277 15.3007 4.31277Z" fill="black"/>
</g>
</g>
<g id="Maps">
<path id="Vector_3" fill-rule="evenodd" clip-rule="evenodd" d="M 0 18.8441L 0 1.79356C 0 0.800781 0.80966 -7.14558e-08 1.80291 -7.14558e-08L 18.9423 -7.14558e-08L 0 18.8441Z" transform="translate(62 362.002)" fill="#A5A5A5"/>
<path id="Vector_4" fill-rule="evenodd" clip-rule="evenodd" d="M 0 19.2L 0 18.8441L 18.9423 -7.14558e-08L 19.3 -7.14558e-08C 20.298 -7.14558e-08 21.1077 0.805464 21.1077 1.79356L 21.1077 2.14946L 2.16537 20.9982L 1.80761 20.9982C 0.80966 20.9982 0 20.1928 0 19.2Z" transform="translate(62 362.002)" fill="#DCDCDC"/>
<path id="Vector_5" fill-rule="evenodd" clip-rule="evenodd" d="M 0 8.34498L 8.38846 -5.71646e-07L 16.7769 8.34498L 0 8.34498Z" transform="translate(64.1653 374.655)" fill="#8C8C8C"/>
<path id="Vector_6" fill-rule="evenodd" clip-rule="evenodd" d="M 8.51555 10.6302L 0 2.15415L 2.16537 0L 10.6809 8.47141L 10.6809 8.82732C 10.6809 9.8201 9.87126 10.6209 8.87331 10.6209L 8.51555 10.6209L 8.51555 10.6302Z" transform="translate(72.4268 372.37)" fill="white"/>
<path id="Vector_7" fill-rule="evenodd" clip-rule="evenodd" d="M 8.38846 16.69L 5.74625e-07 8.34497L 8.38846 -7.14558e-08L 8.38846 16.69Z" transform="translate(74.7191 364.156)" fill="#DCDCDC"/>
<path id="Vector_8" d="M 5.68645 2.43044L 4.57552 2.43044L 2.85735 2.43044L 2.85735 3.40449L 4.52845 3.40449C 4.29308 4.09756 3.63406 4.59863 2.85735 4.59863C 1.88293 4.59863 1.0921 3.8119 1.0921 2.84254C 1.0921 1.87317 1.88293 1.08644 2.85735 1.08644C 3.29984 1.08644 3.70467 1.25034 4.01064 1.51259L 4.79206 0.753951C 4.28367 0.285658 3.6011 0 2.85735 0C 1.28039 0 3.59141e-08 1.27376 3.59141e-08 2.84254C 3.59141e-08 4.41132 1.28039 5.68507 2.85735 5.68507C 4.2413 5.68507 5.3946 4.70634 5.65821 3.40449C 5.69586 3.22185 5.71469 3.03454 5.71469 2.84254C 5.71469 2.70205 5.70528 2.56624 5.68645 2.43044Z" transform="translate(64.4103 364.104)" fill="#F6F6F6"/>
<g id="Group">
<path id="Vector_9" fill-rule="evenodd" clip-rule="evenodd" d="M 5.68174 17.9684L 5.67233 17.9684C 5.48403 17.9684 5.38518 17.8279 5.36635 17.6734C 4.90974 14.3625 4.03418 13.1169 3.28571 11.8853C 2.04298 9.83883 1.43656e-07 7.57698 1.43656e-07 5.32917C 1.43656e-07 2.496 2.33013 0 5.67233 0L 5.69116 0C 9.02865 0 11.3588 2.496 11.3588 5.32449C 11.3588 7.57229 9.3158 9.83883 8.07306 11.8806C 7.3246 13.1122 6.45374 14.3579 5.99243 17.6687C 5.96889 17.8232 5.87004 17.9684 5.68174 17.9684Z" transform="translate(73.6412 359)" fill="#636363"/>
<path id="Vector_10" fill-rule="evenodd" clip-rule="evenodd" d="M 0.571941 0.568976C 1.33453 -0.189658 2.57255 -0.189658 3.33514 0.568976C 4.09773 1.32761 4.09773 2.55922 3.33514 3.31785C 2.57255 4.07649 1.33453 4.07649 0.571941 3.31785C -0.190646 2.55922 -0.190646 1.32761 0.571941 0.568976Z" transform="translate(77.3671 362.449)" fill="black"/>
</g>
</g>
<g id="Messages">
<ellipse id="Ellipse_2" cx="11.5" cy="11.375" rx="11.5" ry="11.375" transform="translate(114 362)" fill="#696969"/>
<g id="Mask Group">
<mask id="mask0" mask-type="alpha" maskUnits="userSpaceOnUse" x="114" y="362" width="23" height="23">
<ellipse id="Ellipse_3" cx="11.5" cy="11.375" rx="11.5" ry="11.375" transform="translate(114 362)" fill="#696969"/>
</mask>
<g mask="url(#mask0)">
<path id="Vector 2" d="M 7.10124 17.7952L 0 10.4006L 3.03472 3.48689L 11.2285 0L 18.6332 7.15414L 15.7198 15.3904L 7.10124 17.7952Z" transform="translate(120.016 368.182)" fill="#5A5A5A"/>
</g>
</g>
<path id="Vector_11" d="M 12.8512 0L 0.500912 0C 0.0879925 0 -0.146953 0.467054 0.102082 0.792845L 1.60513 2.75914C 1.99902 3.27444 2.21215 3.9028 2.21215 4.54881L 2.21215 8.44346C 2.21215 10.0823 3.5553 11.4109 5.21215 11.4109L 12.8512 11.4109C 14.508 11.4109 15.8512 10.0823 15.8512 8.44346L 15.8512 2.9674C 15.8512 1.32855 14.508 0 12.8512 0Z" transform="translate(116.49 367.547)" fill="#F2F2F2"/>
<g id="Vector_12" transform="translate(121.36 369.915)">
<path d="M 0 0.779983C 0 0.34921 0.353047 0 0.788551 0L 7.50584 0C 7.94135 0 8.29439 0.34921 8.29439 0.779983C 8.29439 1.21076 7.94135 1.55997 7.50584 1.55997L 0.788551 1.55997C 0.353047 1.55997 0 1.21076 0 0.779983Z" fill="#C1C1C1"/>
<path d="M 0 3.32215C 0 2.89138 0.353047 2.54217 0.788551 2.54217L 7.50584 2.54217C 7.94135 2.54217 8.29439 2.89138 8.29439 3.32215C 8.29439 3.75292 7.94135 4.10213 7.50584 4.10213L 0.788551 4.10213C 0.353047 4.10213 0 3.75292 0 3.32215Z" fill="#C1C1C1"/>
<path d="M 0 5.92209C 0 5.49132 0.353047 5.14211 0.788551 5.14211L 4.41005 5.14211C 4.84555 5.14211 5.1986 5.49132 5.1986 5.92209C 5.1986 6.35287 4.84555 6.70208 4.41005 6.70208L 0.788551 6.70208C 0.353047 6.70208 0 6.35287 0 5.92209Z" fill="#C1C1C1"/>
</g>
</g>
</g>
</g>
</g>
<defs>
<filter id="filter0_d" x="0" y="0" width="252" height="490" filterUnits="userSpaceOnUse" color-interpolation-filters="sRGB">
<feFlood flood-opacity="0" result="BackgroundImageFix"/>
<feColorMatrix in="SourceAlpha" type="matrix" values="0 0 0 0 0 0 0 0 0 0 0 0 0 0 0 0 0 0 255 0"/>
<feOffset dy="4"/>
<feGaussianBlur stdDeviation="7.5"/>
<feColorMatrix type="matrix" values="0 0 0 0 0 0 0 0 0 0 0 0 0 0 0 0 0 0 0.5 0"/>
<feBlend mode="normal" in2="BackgroundImageFix" result="effect1_dropShadow"/>
<feBlend mode="normal" in="SourceGraphic" in2="effect1_dropShadow" result="shape"/>
</filter>
<linearGradient id="paint0_linear" x2="1" gradientUnits="userSpaceOnUse" gradientTransform="matrix(0 460.056 -460.061 0 284.252 -0.0555346)">
<stop stop-color="#F5F5F5"/>
<stop offset="1" stop-color="#F0F0F0"/>
</linearGradient>
<clipPath id="clip0">
<rect width="196.385" height="349.608" fill="white" transform="translate(27 66)"/>
</clipPath>
</defs>
</svg>
