<svg width="222" height="460" viewBox="0 0 222 460" version="1.1" xmlns="http://www.w3.org/2000/svg" xmlns:xlink="http://www.w3.org/1999/xlink">
<g id="Canvas" fill="none">
<g id="Pixel_Empty">
<g id="hardware">
<path id="Volume + Power" fill-rule="evenodd" clip-rule="evenodd" d="M 1.86426 0L 14.3694 0C 15.3989 0 16.2336 0.730347 16.2336 1.63123L 16.2336 30.3478C 16.2336 31.2487 15.3989 31.979 14.3694 31.979L 1.86426 31.979C 0.834717 31.979 0 31.2487 0 30.3478L 0 1.63123C 0 0.730347 0.834717 0 1.86426 0ZM 1.86426 70.3901L 14.3694 70.3901C 15.3989 70.3901 16.2336 71.1205 16.2336 72.0214L 16.2336 130.333C 16.2336 131.234 15.3989 131.964 14.3694 131.964L 1.86426 131.964C 0.834717 131.964 0 131.234 0 130.333L 0 72.0214C 0 71.1205 0.834717 70.3901 1.86426 70.3901Z" transform="translate(205.767 120.086)" fill="#4F4F4F"/>
<path id="Phone_BG" d="M 198.967 0L 21.0916 0C 9.44304 0 0 9.44294 0 21.0914L 0 438.909C 0 450.557 9.44304 460 21.0916 460L 198.967 460C 210.615 460 220.059 450.557 220.059 438.909L 220.059 21.0914C 220.059 9.44294 210.615 0 198.967 0Z" fill="url(#paint0_linear)"/>
<path id="PhoneFG" d="M 193.882 0L 19.1086 0C 8.55522 0 0 8.55513 0 19.1084L 0 433.202C 0 443.755 8.55522 452.31 19.1086 452.31L 193.882 452.31C 204.436 452.31 212.991 443.755 212.991 433.202L 212.991 19.1084C 212.991 8.55513 204.436 0 193.882 0Z" transform="translate(3.53381 3.84497)" fill="#1A1A1A"/>
<path id="Speakers" fill-rule="evenodd" clip-rule="evenodd" d="M 1.64483 6.13727C 3.21783 7.04535 5.22906 6.50641 6.13726 4.93354C 7.04547 3.36054 6.50665 1.34931 4.93365 0.441106C 3.36065 -0.466975 1.34942 0.071965 0.441217 1.64484C -0.466986 3.21784 0.0718327 5.22907 1.64483 6.13727ZM 113.551 0.261662L 35.6109 0.261662C 34.1094 0.261662 32.8921 1.47895 32.8921 2.98053C 32.8921 4.482 34.1094 5.69928 35.6109 5.69928L 113.551 5.69928C 115.053 5.69928 116.27 4.482 116.27 2.98053C 116.27 1.47895 115.053 0.261662 113.551 0.261662ZM 35.6109 408.924L 113.551 408.924C 115.053 408.924 116.27 410.141 116.27 411.643C 116.27 413.144 115.053 414.362 113.551 414.362L 35.6109 414.362C 34.1094 414.362 32.8921 413.144 32.8921 411.643C 32.8921 410.141 34.1094 408.924 35.6109 408.924Z" transform="translate(35.4487 24.3196)" fill="#363636"/>
</g>
<rect id="Screen Frame" width="196.385" height="349.609" transform="translate(12.8081 55.5762)" fill="black"/>
</g>
</g>
<defs>
<linearGradient id="paint0_linear" x2="1" gradientUnits="userSpaceOnUse" gradientTransform="matrix(0 460.056 -460.061 0 284.252 -0.0555346)">
<stop stop-color="#3B3B3B"/>
<stop offset="1"/>
</linearGradient>
</defs>
</svg>
